<?xml version="1.0" encoding="UTF-8" standalone="no"?>
<!DOCTYPE svg PUBLIC "-//W3C//DTD SVG 1.1//EN"
 "http://www.w3.org/Graphics/SVG/1.1/DTD/svg11.dtd">
<!-- Generated by graphviz version 2.40.1 (20161225.0304)
 -->
<!-- Title: dependencies Pages: 1 -->
<svg width="628pt" height="284pt"
 viewBox="0.00 0.00 628.00 284.00" xmlns="http://www.w3.org/2000/svg" xmlns:xlink="http://www.w3.org/1999/xlink">
<g id="graph0" class="graph" transform="scale(1 1) rotate(0) translate(4 280)">
<title>dependencies</title>
<polygon fill="#ffffff" stroke="transparent" points="-4,4 -4,-280 624,-280 624,4 -4,4"/>
<text text-anchor="start" x="289.0091" y="-42.4" font-family="sans-serif" font-weight="bold" font-size="14.00" fill="#000000">Legend</text>
<polygon fill="#ffffb3" stroke="transparent" points="76,-10 76,-30 96,-30 96,-10 76,-10"/>
<text text-anchor="start" x="99.629" y="-15.4" font-family="sans-serif" font-size="14.00" fill="#000000"> &#160;Declarations</text>
<polygon fill="#8dd3c7" stroke="transparent" points="189,-10 189,-30 209,-30 209,-10 189,-10"/>
<text text-anchor="start" x="212.7251" y="-15.4" font-family="sans-serif" font-size="14.00" fill="#000000"> &#160;Module</text>
<polygon fill="#80b1d3" stroke="transparent" points="275,-10 275,-30 295,-30 295,-10 275,-10"/>
<text text-anchor="start" x="298.7812" y="-15.4" font-family="sans-serif" font-size="14.00" fill="#000000"> &#160;Bootstrap</text>
<polygon fill="#fdb462" stroke="transparent" points="372,-10 372,-30 392,-30 392,-10 372,-10"/>
<text text-anchor="start" x="395.6732" y="-15.4" font-family="sans-serif" font-size="14.00" fill="#000000"> &#160;Providers</text>
<polygon fill="#fb8072" stroke="transparent" points="468,-10 468,-30 488,-30 488,-10 468,-10"/>
<text text-anchor="start" x="491.7258" y="-15.4" font-family="sans-serif" font-size="14.00" fill="#000000"> &#160;Exports</text>
<g id="clust1" class="cluster">
<title>cluster_AppModule</title>
<polygon fill="none" stroke="#000000" stroke-dasharray="1,5" points="8,-70 8,-268 612,-268 612,-70 8,-70"/>
</g>
<g id="clust2" class="cluster">
<title>cluster_AppModule_declarations</title>
<polygon fill="none" stroke="#000000" points="16,-78 16,-130 604,-130 604,-78 16,-78"/>
</g>
<g id="clust11" class="cluster">
<title>cluster_AppModule_bootstrap</title>
<polygon fill="none" stroke="#000000" points="257,-208 257,-260 345,-260 345,-208 257,-208"/>
</g>
<!-- AboutPage -->
<g id="node1" class="node">
<title>AboutPage</title>
<polygon fill="#ffffb3" stroke="#000000" points="596.2093,-122 517.7907,-122 517.7907,-86 596.2093,-86 596.2093,-122"/>
<text text-anchor="middle" x="557" y="-99.8" font-family="Times,serif" font-size="14.00" fill="#000000">AboutPage</text>
</g>
<!-- AppModule -->
<g id="node7" class="node">
<title>AppModule</title>
<polygon fill="#8dd3c7" stroke="#000000" points="342.6571,-187 339.6571,-191 318.6571,-191 315.6571,-187 259.3429,-187 259.3429,-151 342.6571,-151 342.6571,-187"/>
<text text-anchor="middle" x="301" y="-164.8" font-family="Times,serif" font-size="14.00" fill="#000000">AppModule</text>
</g>
<!-- AboutPage&#45;&gt;AppModule -->
<g id="edge1" class="edge">
<title>AboutPage&#45;&gt;AppModule</title>
<path fill="none" stroke="#000000" d="M557,-122.2843C557,-143.3211 557,-175 557,-175 557,-175 352.7006,-175 352.7006,-175"/>
<polygon fill="#000000" stroke="#000000" points="352.7006,-171.5001 342.7006,-175 352.7005,-178.5001 352.7006,-171.5001"/>
</g>
<!-- ContactPage -->
<g id="node2" class="node">
<title>ContactPage</title>
<polygon fill="#ffffb3" stroke="#000000" points="500.2591,-122 413.7409,-122 413.7409,-86 500.2591,-86 500.2591,-122"/>
<text text-anchor="middle" x="457" y="-99.8" font-family="Times,serif" font-size="14.00" fill="#000000">ContactPage</text>
</g>
<!-- ContactPage&#45;&gt;AppModule -->
<g id="edge2" class="edge">
<title>ContactPage&#45;&gt;AppModule</title>
<path fill="none" stroke="#000000" d="M457,-122.0225C457,-139.3734 457,-163 457,-163 457,-163 352.8051,-163 352.8051,-163"/>
<polygon fill="#000000" stroke="#000000" points="352.8052,-159.5001 342.8051,-163 352.8051,-166.5001 352.8052,-159.5001"/>
</g>
<!-- HomePage -->
<g id="node3" class="node">
<title>HomePage</title>
<polygon fill="#ffffb3" stroke="#000000" points="395.9248,-122 318.0752,-122 318.0752,-86 395.9248,-86 395.9248,-122"/>
<text text-anchor="middle" x="357" y="-99.8" font-family="Times,serif" font-size="14.00" fill="#000000">HomePage</text>
</g>
<!-- HomePage&#45;&gt;AppModule -->
<g id="edge3" class="edge">
<title>HomePage&#45;&gt;AppModule</title>
<path fill="none" stroke="#000000" d="M330.5582,-122.1061C330.5582,-122.1061 330.5582,-140.991 330.5582,-140.991"/>
<polygon fill="#000000" stroke="#000000" points="327.0583,-140.9909 330.5582,-150.991 334.0583,-140.991 327.0583,-140.9909"/>
</g>
<!-- MostrarImgPage -->
<g id="node4" class="node">
<title>MostrarImgPage</title>
<polygon fill="#ffffb3" stroke="#000000" points="300.0786,-122 189.9214,-122 189.9214,-86 300.0786,-86 300.0786,-122"/>
<text text-anchor="middle" x="245" y="-99.8" font-family="Times,serif" font-size="14.00" fill="#000000">MostrarImgPage</text>
</g>
<!-- MostrarImgPage&#45;&gt;AppModule -->
<g id="edge4" class="edge">
<title>MostrarImgPage&#45;&gt;AppModule</title>
<path fill="none" stroke="#000000" d="M279.6056,-122.1061C279.6056,-122.1061 279.6056,-140.991 279.6056,-140.991"/>
<polygon fill="#000000" stroke="#000000" points="276.1056,-140.9909 279.6056,-150.991 283.1056,-140.991 276.1056,-140.9909"/>
</g>
<!-- MyApp -->
<g id="node5" class="node">
<title>MyApp</title>
<polygon fill="#ffffb3" stroke="#000000" points="171.5529,-122 112.4471,-122 112.4471,-86 171.5529,-86 171.5529,-122"/>
<text text-anchor="middle" x="142" y="-99.8" font-family="Times,serif" font-size="14.00" fill="#000000">MyApp</text>
</g>
<!-- MyApp&#45;&gt;AppModule -->
<g id="edge5" class="edge">
<title>MyApp&#45;&gt;AppModule</title>
<path fill="none" stroke="#000000" d="M142,-122.0225C142,-139.3734 142,-163 142,-163 142,-163 249.2246,-163 249.2246,-163"/>
<polygon fill="#000000" stroke="#000000" points="249.2247,-166.5001 259.2246,-163 249.2246,-159.5001 249.2247,-166.5001"/>
</g>
<!-- TabsPage -->
<g id="node6" class="node">
<title>TabsPage</title>
<polygon fill="#ffffb3" stroke="#000000" points="94.4249,-122 23.5751,-122 23.5751,-86 94.4249,-86 94.4249,-122"/>
<text text-anchor="middle" x="59" y="-99.8" font-family="Times,serif" font-size="14.00" fill="#000000">TabsPage</text>
</g>
<!-- TabsPage&#45;&gt;AppModule -->
<g id="edge6" class="edge">
<title>TabsPage&#45;&gt;AppModule</title>
<path fill="none" stroke="#000000" d="M59,-122.2843C59,-143.3211 59,-175 59,-175 59,-175 249.1231,-175 249.1231,-175"/>
<polygon fill="#000000" stroke="#000000" points="249.1231,-178.5001 259.1231,-175 249.1231,-171.5001 249.1231,-178.5001"/>
</g>
<!-- IonicApp  -->
<g id="node8" class="node">
<title>IonicApp </title>
<polygon fill="#80b1d3" stroke="#000000" points="337.3734,-252 264.6266,-252 264.6266,-216 337.3734,-216 337.3734,-252"/>
<text text-anchor="middle" x="301" y="-229.8" font-family="Times,serif" font-size="14.00" fill="#000000">IonicApp </text>
</g>
<!-- AppModule&#45;&gt;IonicApp  -->
<g id="edge7" class="edge">
<title>AppModule&#45;&gt;IonicApp </title>
<path fill="none" stroke="#000000" stroke-dasharray="1,5" d="M301,-187.1061C301,-187.1061 301,-205.991 301,-205.991"/>
<polygon fill="#000000" stroke="#000000" points="297.5001,-205.9909 301,-215.991 304.5001,-205.991 297.5001,-205.9909"/>
</g>
</g>
</svg>
