<?xml version="1.0" encoding="UTF-8" standalone="no"?>
<!DOCTYPE svg PUBLIC "-//W3C//DTD SVG 1.1//EN"
 "http://www.w3.org/Graphics/SVG/1.1/DTD/svg11.dtd">
<!-- Generated by graphviz version 2.40.1 (20161225.0304)
 -->
<!-- Title: dependencies Pages: 1 -->
<svg width="806pt" height="284pt"
 viewBox="0.00 0.00 806.00 284.00" xmlns="http://www.w3.org/2000/svg" xmlns:xlink="http://www.w3.org/1999/xlink">
<g id="graph0" class="graph" transform="scale(1 1) rotate(0) translate(4 280)">
<title>dependencies</title>
<polygon fill="#ffffff" stroke="transparent" points="-4,4 -4,-280 802,-280 802,4 -4,4"/>
<text text-anchor="start" x="378.0091" y="-42.4" font-family="sans-serif" font-weight="bold" font-size="14.00" fill="#000000">Legend</text>
<polygon fill="#ffffb3" stroke="transparent" points="165,-10 165,-30 185,-30 185,-10 165,-10"/>
<text text-anchor="start" x="188.629" y="-15.4" font-family="sans-serif" font-size="14.00" fill="#000000"> &#160;Declarations</text>
<polygon fill="#8dd3c7" stroke="transparent" points="278,-10 278,-30 298,-30 298,-10 278,-10"/>
<text text-anchor="start" x="301.7251" y="-15.4" font-family="sans-serif" font-size="14.00" fill="#000000"> &#160;Module</text>
<polygon fill="#80b1d3" stroke="transparent" points="364,-10 364,-30 384,-30 384,-10 364,-10"/>
<text text-anchor="start" x="387.7812" y="-15.4" font-family="sans-serif" font-size="14.00" fill="#000000"> &#160;Bootstrap</text>
<polygon fill="#fdb462" stroke="transparent" points="461,-10 461,-30 481,-30 481,-10 461,-10"/>
<text text-anchor="start" x="484.6732" y="-15.4" font-family="sans-serif" font-size="14.00" fill="#000000"> &#160;Providers</text>
<polygon fill="#fb8072" stroke="transparent" points="557,-10 557,-30 577,-30 577,-10 557,-10"/>
<text text-anchor="start" x="580.7258" y="-15.4" font-family="sans-serif" font-size="14.00" fill="#000000"> &#160;Exports</text>
<g id="clust1" class="cluster">
<title>cluster_AppModule</title>
<polygon fill="none" stroke="#000000" stroke-dasharray="1,5" points="8,-70 8,-268 612,-268 612,-70 8,-70"/>
</g>
<g id="clust2" class="cluster">
<title>cluster_AppModule_declarations</title>
<polygon fill="none" stroke="#000000" points="16,-78 16,-130 604,-130 604,-78 16,-78"/>
</g>
<g id="clust11" class="cluster">
<title>cluster_AppModule_bootstrap</title>
<polygon fill="none" stroke="#000000" points="235,-208 235,-260 323,-260 323,-208 235,-208"/>
</g>
<g id="clust13" class="cluster">
<title>cluster_MostrarImgPageModule</title>
<polygon fill="none" stroke="#000000" stroke-dasharray="1,5" points="620,-143 620,-195 790,-195 790,-143 620,-143"/>
</g>
<!-- AboutPage -->
<g id="node1" class="node">
<title>AboutPage</title>
<polygon fill="#ffffb3" stroke="#000000" points="468.2093,-122 389.7907,-122 389.7907,-86 468.2093,-86 468.2093,-122"/>
<text text-anchor="middle" x="429" y="-99.8" font-family="Times,serif" font-size="14.00" fill="#000000">AboutPage</text>
</g>
<!-- AppModule -->
<g id="node7" class="node">
<title>AppModule</title>
<polygon fill="#8dd3c7" stroke="#000000" points="320.6571,-187 317.6571,-191 296.6571,-191 293.6571,-187 237.3429,-187 237.3429,-151 320.6571,-151 320.6571,-187"/>
<text text-anchor="middle" x="279" y="-164.8" font-family="Times,serif" font-size="14.00" fill="#000000">AppModule</text>
</g>
<!-- AboutPage&#45;&gt;AppModule -->
<g id="edge1" class="edge">
<title>AboutPage&#45;&gt;AppModule</title>
<path fill="none" stroke="#000000" d="M429,-122.1061C429,-141.3391 429,-169 429,-169 429,-169 330.7834,-169 330.7834,-169"/>
<polygon fill="#000000" stroke="#000000" points="330.7834,-165.5001 320.7834,-169 330.7833,-172.5001 330.7834,-165.5001"/>
</g>
<!-- ContactPage -->
<g id="node2" class="node">
<title>ContactPage</title>
<polygon fill="#ffffb3" stroke="#000000" points="372.2591,-122 285.7409,-122 285.7409,-86 372.2591,-86 372.2591,-122"/>
<text text-anchor="middle" x="329" y="-99.8" font-family="Times,serif" font-size="14.00" fill="#000000">ContactPage</text>
</g>
<!-- ContactPage&#45;&gt;AppModule -->
<g id="edge2" class="edge">
<title>ContactPage&#45;&gt;AppModule</title>
<path fill="none" stroke="#000000" d="M303.2244,-122.1061C303.2244,-122.1061 303.2244,-140.991 303.2244,-140.991"/>
<polygon fill="#000000" stroke="#000000" points="299.7245,-140.9909 303.2244,-150.991 306.7245,-140.991 299.7245,-140.9909"/>
</g>
<!-- HomePage -->
<g id="node3" class="node">
<title>HomePage</title>
<polygon fill="#ffffb3" stroke="#000000" points="267.9248,-122 190.0752,-122 190.0752,-86 267.9248,-86 267.9248,-122"/>
<text text-anchor="middle" x="229" y="-99.8" font-family="Times,serif" font-size="14.00" fill="#000000">HomePage</text>
</g>
<!-- HomePage&#45;&gt;AppModule -->
<g id="edge3" class="edge">
<title>HomePage&#45;&gt;AppModule</title>
<path fill="none" stroke="#000000" d="M252.4418,-122.1061C252.4418,-122.1061 252.4418,-140.991 252.4418,-140.991"/>
<polygon fill="#000000" stroke="#000000" points="248.9419,-140.9909 252.4418,-150.991 255.9419,-140.991 248.9419,-140.9909"/>
</g>
<!-- MostrarImgPage -->
<g id="node4" class="node">
<title>MostrarImgPage</title>
<polygon fill="#ffffb3" stroke="#000000" points="596.0786,-122 485.9214,-122 485.9214,-86 596.0786,-86 596.0786,-122"/>
<text text-anchor="middle" x="541" y="-99.8" font-family="Times,serif" font-size="14.00" fill="#000000">MostrarImgPage</text>
</g>
<!-- MostrarImgPage&#45;&gt;AppModule -->
<g id="edge4" class="edge">
<title>MostrarImgPage&#45;&gt;AppModule</title>
<path fill="none" stroke="#000000" d="M522.6536,-122.2921C522.6536,-144.2057 522.6536,-178 522.6536,-178 522.6536,-178 330.8855,-178 330.8855,-178"/>
<polygon fill="#000000" stroke="#000000" points="330.8856,-174.5001 320.8855,-178 330.8855,-181.5001 330.8856,-174.5001"/>
</g>
<!-- MostrarImgPageModule -->
<g id="node9" class="node">
<title>MostrarImgPageModule</title>
<polygon fill="#8dd3c7" stroke="#000000" points="781.6288,-187 778.6288,-191 757.6288,-191 754.6288,-187 628.3712,-187 628.3712,-151 781.6288,-151 781.6288,-187"/>
<text text-anchor="middle" x="705" y="-164.8" font-family="Times,serif" font-size="14.00" fill="#000000">MostrarImgPageModule</text>
</g>
<!-- MostrarImgPage&#45;&gt;MostrarImgPageModule -->
<g id="edge8" class="edge">
<title>MostrarImgPage&#45;&gt;MostrarImgPageModule</title>
<path fill="none" stroke="#000000" d="M559.3464,-122.027C559.3464,-138.3976 559.3464,-160 559.3464,-160 559.3464,-160 618.3343,-160 618.3343,-160"/>
<polygon fill="#000000" stroke="#000000" points="618.3344,-163.5001 628.3343,-160 618.3343,-156.5001 618.3344,-163.5001"/>
</g>
<!-- MyApp -->
<g id="node5" class="node">
<title>MyApp</title>
<polygon fill="#ffffb3" stroke="#000000" points="83.5529,-122 24.4471,-122 24.4471,-86 83.5529,-86 83.5529,-122"/>
<text text-anchor="middle" x="54" y="-99.8" font-family="Times,serif" font-size="14.00" fill="#000000">MyApp</text>
</g>
<!-- MyApp&#45;&gt;AppModule -->
<g id="edge5" class="edge">
<title>MyApp&#45;&gt;AppModule</title>
<path fill="none" stroke="#000000" d="M54,-122.2843C54,-143.3211 54,-175 54,-175 54,-175 227.2065,-175 227.2065,-175"/>
<polygon fill="#000000" stroke="#000000" points="227.2066,-178.5001 237.2065,-175 227.2065,-171.5001 227.2066,-178.5001"/>
</g>
<!-- TabsPage -->
<g id="node6" class="node">
<title>TabsPage</title>
<polygon fill="#ffffb3" stroke="#000000" points="172.4249,-122 101.5751,-122 101.5751,-86 172.4249,-86 172.4249,-122"/>
<text text-anchor="middle" x="137" y="-99.8" font-family="Times,serif" font-size="14.00" fill="#000000">TabsPage</text>
</g>
<!-- TabsPage&#45;&gt;AppModule -->
<g id="edge6" class="edge">
<title>TabsPage&#45;&gt;AppModule</title>
<path fill="none" stroke="#000000" d="M137,-122.0225C137,-139.3734 137,-163 137,-163 137,-163 227.1633,-163 227.1633,-163"/>
<polygon fill="#000000" stroke="#000000" points="227.1634,-166.5001 237.1633,-163 227.1633,-159.5001 227.1634,-166.5001"/>
</g>
<!-- IonicApp  -->
<g id="node8" class="node">
<title>IonicApp </title>
<polygon fill="#80b1d3" stroke="#000000" points="315.3734,-252 242.6266,-252 242.6266,-216 315.3734,-216 315.3734,-252"/>
<text text-anchor="middle" x="279" y="-229.8" font-family="Times,serif" font-size="14.00" fill="#000000">IonicApp </text>
</g>
<!-- AppModule&#45;&gt;IonicApp  -->
<g id="edge7" class="edge">
<title>AppModule&#45;&gt;IonicApp </title>
<path fill="none" stroke="#000000" stroke-dasharray="1,5" d="M279,-187.1061C279,-187.1061 279,-205.991 279,-205.991"/>
<polygon fill="#000000" stroke="#000000" points="275.5001,-205.9909 279,-215.991 282.5001,-205.991 275.5001,-205.9909"/>
</g>
</g>
</svg>
